<?xml version="1.0" standalone="no"?>
<!DOCTYPE svg PUBLIC "-//W3C//DTD SVG 20010904//EN"
 "http://www.w3.org/TR/2001/REC-SVG-20010904/DTD/svg10.dtd">
<svg version="1.0" xmlns="http://www.w3.org/2000/svg"
 width="516.000000pt" height="516.000000pt" viewBox="0 0 516.000000 516.000000"
 preserveAspectRatio="xMidYMid meet">
<metadata>
Created by potrace 1.14, written by Peter Selinger 2001-2017
</metadata>
<g transform="translate(0.000000,516.000000) scale(0.100000,-0.100000)"
fill="#000000" stroke="none">
<path d="M2695 4159 c-152 -32 -275 -88 -395 -180 -32 -24 -46 -27 -154 -33
-65 -4 -122 -8 -125 -10 -3 -2 -35 -7 -71 -10 -36 -4 -72 -9 -80 -11 -8 -2
-28 -6 -43 -9 -84 -15 -95 -23 -138 -114 -39 -83 -117 -271 -125 -302 -2 -8
-15 -48 -29 -88 -26 -75 -80 -280 -89 -342 -3 -19 -8 -46 -11 -60 -18 -91 -24
-290 -13 -415 7 -75 10 -95 24 -185 l6 -36 -78 -1 c-86 -1 -104 -12 -98 -61 1
-15 5 -126 8 -247 4 -157 9 -222 18 -231 7 -6 61 -15 123 -18 233 -14 228 -12
270 -94 30 -58 99 -167 107 -170 4 -2 8 -8 8 -14 0 -12 134 -185 199 -257 l49
-54 144 6 c78 3 158 8 176 11 18 3 52 8 75 11 60 9 226 45 254 56 19 7 33 0
90 -49 38 -31 97 -85 131 -119 35 -35 71 -63 79 -63 20 0 150 113 341 297 61
59 61 58 -12 136 l-46 49 78 55 c279 200 462 423 642 785 76 153 170 377 170
405 0 21 -26 69 -93 168 -49 73 -164 224 -187 245 -27 26 -40 54 -46 100 -16
144 -81 318 -165 442 -109 160 -298 307 -475 368 -166 58 -359 72 -519 39z
m335 -24 c30 -4 55 -6 55 -5 0 0 41 -13 90 -30 154 -54 268 -125 378 -234 83
-83 130 -149 182 -261 21 -44 41 -87 45 -95 4 -9 11 -31 16 -50 4 -19 8 -37 9
-40 2 -8 16 -74 20 -95 2 -11 4 -34 4 -50 1 -23 19 -52 71 -113 89 -105 148
-189 204 -287 l44 -78 -28 -76 c-115 -314 -283 -609 -460 -811 -73 -84 -200
-194 -308 -268 l-88 -60 -50 45 c-134 124 -169 151 -299 238 -77 51 -198 125
-270 163 -129 70 -172 99 -161 109 12 12 222 -96 371 -192 98 -63 255 -179
324 -239 l64 -56 48 28 c220 123 414 333 593 641 54 92 169 335 197 413 23 66
23 66 4 102 -39 73 -163 236 -257 340 -21 23 -38 48 -38 56 -1 8 -3 22 -4 30
-2 8 -6 43 -10 76 -13 116 -74 275 -149 383 -51 74 -163 186 -235 234 -166
111 -336 159 -532 153 -128 -5 -127 -5 -243 -40 -85 -26 -224 -103 -290 -160
-36 -31 -44 -33 -115 -35 -93 -2 -174 -9 -267 -21 -105 -14 -128 -20 -151 -35
-42 -27 -165 -353 -229 -605 -62 -242 -76 -476 -40 -678 24 -140 23 -138 97
-146 94 -11 124 -16 227 -38 51 -11 101 -21 110 -23 94 -19 282 -77 401 -125
65 -26 69 -29 51 -39 -8 -5 -45 3 -95 21 -147 54 -357 116 -456 134 -14 3 -32
7 -40 9 -8 3 -33 7 -55 10 -22 3 -51 8 -65 10 -14 3 -65 7 -115 10 -49 3 -91
7 -92 9 -2 2 -6 16 -9 32 -2 16 -6 38 -9 50 -20 89 -27 425 -11 529 39 258
120 518 243 777 45 94 53 103 103 113 12 2 29 6 38 9 16 5 28 7 107 20 69 11
116 16 218 22 104 5 111 7 154 40 126 96 287 162 443 181 25 3 46 6 47 7 5 5
158 -2 213 -9z m50 -171 c89 -22 212 -82 292 -144 60 -47 67 -55 62 -79 -4
-14 -10 -30 -14 -36 -3 -5 -44 -101 -90 -212 -45 -112 -87 -203 -92 -203 -5 0
-19 7 -32 15 -19 13 -25 28 -31 79 -5 54 -12 71 -42 105 -84 99 -221 111 -305
27 -25 -26 -29 -27 -68 -15 -26 8 -39 17 -36 25 20 52 191 441 198 451 10 13
65 9 158 -13z m-484 -56 c-3 -7 -9 -20 -12 -28 -3 -9 -36 -82 -73 -164 l-67
-149 -104 2 c-58 1 -106 4 -108 5 -11 12 88 148 152 210 87 82 232 167 212
124z m-520 -125 c-2 -16 -4 -33 -5 -38 0 -6 -17 -35 -36 -65 -46 -71 -45 -85
2 -58 l36 22 -7 -28 c-9 -36 -36 -74 -58 -81 -24 -8 -39 -30 -48 -70 -4 -19
-6 -35 -5 -35 2 0 19 14 37 30 39 36 60 39 54 8 -3 -13 -5 -28 -5 -35 -1 -19
-52 -74 -78 -84 -16 -6 -23 -17 -24 -36 0 -16 -2 -36 -4 -45 -2 -10 1 -20 6
-24 5 -3 9 -1 9 4 0 10 60 72 70 72 13 0 2 -91 -15 -118 -10 -15 -28 -37 -42
-48 -24 -20 -25 -26 -18 -79 l7 -57 24 48 c14 27 31 55 39 63 12 13 16 11 25
-13 20 -54 5 -122 -37 -168 -23 -24 -24 -30 -14 -60 7 -18 18 -44 25 -57 13
-23 13 -22 20 26 3 27 12 58 20 68 12 16 15 14 34 -27 25 -51 28 -104 8 -153
-14 -32 -13 -36 16 -79 16 -25 33 -46 36 -46 4 0 6 27 5 60 0 33 2 60 7 60 14
0 58 -51 75 -87 11 -24 16 -50 12 -78 -5 -50 -5 -50 54 -97 130 -106 261 -165
457 -208 77 -17 89 -17 109 -4 13 8 23 18 23 23 0 20 73 53 125 58 68 7 71 -5
13 -59 l-43 -40 55 4 c54 3 54 4 83 54 31 54 59 76 120 92 29 8 37 8 37 -2 0
-16 -47 -86 -69 -103 -9 -7 11 -4 44 8 33 12 61 22 62 23 1 1 5 20 9 41 11 73
37 110 95 141 l31 16 -7 -44 c-4 -24 -13 -55 -20 -70 -17 -36 -12 -35 36 3 35
27 39 36 39 74 0 52 15 91 48 123 36 34 45 28 39 -28 -3 -27 -8 -54 -12 -60
-16 -27 14 -5 42 31 27 34 31 44 23 65 -15 39 9 130 39 149 12 7 24 -31 23
-72 -1 -18 0 -33 2 -33 3 0 14 15 25 34 17 26 20 43 15 79 -7 46 9 107 27 107
5 0 11 -12 15 -27 3 -16 7 -32 9 -38 4 -15 33 55 40 97 7 46 54 107 66 86 13
-23 -7 -88 -35 -117 -15 -15 -35 -44 -46 -65 -17 -34 -17 -37 -2 -31 9 4 32 9
51 12 32 6 33 5 22 -16 -16 -29 -55 -53 -92 -56 -16 -1 -31 -4 -33 -6 -15 -20
-46 -68 -46 -71 0 -1 25 -1 55 0 60 4 67 -3 32 -36 -28 -27 -75 -42 -114 -37
-23 3 -35 -5 -67 -41 l-39 -44 56 0 c65 0 75 -9 44 -37 -37 -34 -73 -43 -130
-31 -35 8 -43 5 -88 -28 -27 -19 -49 -37 -49 -38 0 -2 10 -2 23 -1 28 3 117
-23 117 -34 0 -14 -79 -44 -114 -43 -19 1 -52 9 -74 17 -39 16 -44 16 -104 -6
-75 -27 -86 -34 -53 -37 26 -2 98 -43 110 -62 11 -18 -1 -22 -58 -22 -58 0
-87 11 -129 49 -23 22 -32 24 -80 19 -29 -3 -71 -6 -93 -6 l-40 -1 39 -20 c36
-19 78 -60 100 -97 7 -13 1 -14 -42 -10 -61 6 -110 37 -143 90 -23 37 -33 42
-114 54 -42 6 -82 17 -149 41 l-39 14 61 -66 c34 -36 62 -71 62 -78 0 -6 -27
18 -60 55 -64 71 -112 106 -157 115 -15 3 -67 5 -115 5 -49 0 -88 4 -88 9 0 5
3 8 8 8 4 -1 45 -1 92 0 l85 2 -40 19 c-22 11 -76 47 -120 80 -50 38 -86 58
-95 54 -33 -14 -98 -12 -137 6 -37 16 -87 59 -79 67 12 13 97 12 134 0 44 -15
54 -9 25 14 -9 8 -33 37 -54 65 -32 44 -42 51 -73 52 -20 1 -53 9 -72 18 -35
17 -84 71 -84 92 0 17 67 5 108 -19 18 -10 35 -19 37 -19 2 0 -10 30 -25 68
-25 59 -34 70 -77 92 -48 25 -88 73 -99 117 -4 13 -4 27 0 30 9 9 49 -12 88
-46 l35 -30 -8 47 c-4 26 -8 55 -8 65 -1 10 -12 22 -26 27 -44 17 -99 131 -72
150 11 8 66 -32 73 -52 10 -33 19 -18 22 37 2 49 -1 60 -29 94 -32 41 -54 131
-31 131 15 0 62 -51 62 -67 0 -32 17 -8 26 37 6 28 8 50 5 50 -14 0 -41 64
-41 96 0 46 23 44 45 -3 l18 -37 17 45 c10 24 16 48 13 52 -10 17 8 73 32 100
33 34 45 34 41 0z m970 -334 c30 -28 43 -74 32 -114 -18 -67 -90 -96 -156 -64
-81 40 -85 151 -7 198 30 18 102 7 131 -20z m-651 9 c3 -3 1 -25 -4 -49 -6
-24 -11 -72 -11 -106 -1 -307 255 -565 560 -565 182 -1 327 69 436 209 27 35
51 63 54 63 8 0 150 -137 150 -145 0 -14 -71 -112 -112 -155 -372 -389 -1020
-268 -1248 232 -41 92 -68 233 -64 335 4 91 20 174 35 184 12 7 196 5 204 -3z
m1251 -65 c19 -79 25 -233 12 -303 -13 -71 -21 -101 -28 -105 -5 -3 -42 27
-83 66 l-75 70 63 157 c34 86 65 165 68 175 12 33 24 16 43 -60z m-913 0 c15
-3 27 -8 28 -12 15 -131 82 -204 199 -218 52 -6 94 6 142 40 26 19 27 19 62
-2 32 -20 35 -25 25 -44 -21 -41 -97 -105 -143 -120 -67 -23 -169 -17 -229 13
-115 57 -184 204 -154 323 7 29 14 37 26 32 9 -4 28 -9 44 -12z m-1012 -1225
c0 -7 2 -39 5 -70 l6 -57 -56 -37 c-31 -20 -58 -35 -61 -32 -2 2 -7 29 -11 59
-3 29 -8 57 -10 61 -5 9 96 87 114 87 6 1 12 -5 13 -11z m309 -22 c5 -13 12
-50 15 -83 4 -32 8 -65 11 -74 3 -11 -18 -31 -68 -66 -40 -27 -79 -53 -86 -57
-17 -10 -29 25 -37 109 -3 38 -7 74 -8 79 -2 8 147 116 159 116 3 0 9 -11 14
-24z m445 -151 c10 -60 19 -123 22 -140 2 -16 6 -35 8 -42 5 -14 -28 -41 -167
-136 -56 -39 -103 -65 -111 -61 -11 4 -22 50 -39 157 -13 84 -22 159 -20 167
2 8 62 54 135 103 104 69 133 85 143 75 6 -7 19 -62 29 -123z m305 -256 c8
-53 9 -93 4 -98 -5 -5 -38 -29 -74 -55 -65 -47 -89 -56 -91 -33 -1 21 -9 70
-20 126 -6 29 -7 57 -2 61 35 36 150 106 159 99 6 -5 17 -50 24 -100z m-936 1
c169 -48 326 -111 326 -132 0 -16 -6 -15 -67 8 -123 46 -214 76 -219 72 -5 -5
77 -116 156 -211 76 -91 94 -98 227 -92 106 5 170 11 227 22 26 5 20 10 -75
62 -57 31 -119 63 -137 70 -33 14 -40 25 -22 36 23 14 431 -219 413 -235 -29
-27 -364 -79 -529 -82 l-71 -2 -39 44 c-21 23 -46 52 -54 64 -8 12 -23 30 -33
41 -23 24 -173 250 -211 318 -19 33 -23 47 -13 47 7 0 62 -14 121 -30z m1139
-127 c3 -5 8 -36 12 -69 l6 -61 -51 -38 c-29 -21 -55 -34 -60 -29 -4 5 -12 35
-18 67 l-9 59 49 39 c50 39 63 45 71 32z"/>
<path d="M1338 2495 c-2 -1 -68 -5 -148 -8 -231 -10 -237 -14 -175 -97 19 -25
46 -62 60 -82 l27 -37 -56 -105 c-31 -58 -56 -115 -56 -127 0 -20 3 -21 68
-15 37 3 96 9 132 12 36 3 68 8 71 10 4 2 5 71 3 153 l-4 150 59 45 c33 25 65
46 71 46 24 0 5 44 -22 51 -15 4 -28 6 -30 4z"/>
<path d="M3393 1533 c3 -32 9 -72 13 -90 7 -35 13 -29 -147 -176 -66 -62 -72
-70 -61 -88 27 -43 155 -199 163 -199 13 0 34 48 64 145 14 50 33 95 41 101 8
6 55 15 104 18 121 10 126 19 56 111 -99 130 -191 230 -215 233 -23 4 -23 2
-18 -55z"/>
</g>
</svg>
